<?xml version="1.0" encoding="UTF-8"?>
<svg id="Layer_1" data-name="Layer 1" xmlns="http://www.w3.org/2000/svg" viewBox="0 0 3371.59 2480">
  <defs>
    <style>
      .cls-1 {
        fill: #fff;
      }

      .cls-1, .cls-2, .cls-3, .cls-4, .cls-5, .cls-6, .cls-7, .cls-8, .cls-9, .cls-10, .cls-11, .cls-12, .cls-13, .cls-14, .cls-15, .cls-16, .cls-17, .cls-18, .cls-19, .cls-20, .cls-21, .cls-22, .cls-23, .cls-24, .cls-25, .cls-26 {
        stroke-width: 0px;
      }

      .cls-1, .cls-2, .cls-3, .cls-4, .cls-5, .cls-6, .cls-7, .cls-8, .cls-9, .cls-10, .cls-11, .cls-12, .cls-14, .cls-15, .cls-16, .cls-17, .cls-20, .cls-21, .cls-23, .cls-24, .cls-25 {
        fill-rule: evenodd;
      }

      .cls-2 {
        fill: #243e80;
      }

      .cls-3, .cls-18 {
        fill: #b1d2fc;
      }

      .cls-4, .cls-22 {
        fill: #7ba9e3;
      }

      .cls-5 {
        fill: #284489;
      }

      .cls-6 {
        fill: #3c59a2;
      }

      .cls-7 {
        fill: #345095;
      }

      .cls-8 {
        fill: #ecf5ff;
      }

      .cls-9, .cls-19 {
        fill: #203f7b;
      }

      .cls-10 {
        fill: #bbbcbf;
      }

      .cls-11 {
        fill: #d7d7d8;
      }

      .cls-12 {
        fill: #4b69b2;
      }

      .cls-13 {
        fill: #4e6bb4;
      }

      .cls-14 {
        fill: #092978;
      }

      .cls-15 {
        fill: #2d488b;
      }

      .cls-16 {
        fill: #d4cfcc;
      }

      .cls-17 {
        fill: #eae7e5;
      }

      .cls-20 {
        fill: #193170;
      }

      .cls-21 {
        fill: #f48120;
      }

      .cls-23 {
        fill: #f1eeee;
      }

      .cls-24 {
        fill: #bcb1ab;
      }

      .cls-25 {
        fill: #f69b25;
      }

      .cls-26 {
        fill: #000446;
      }
    </style>
  </defs>
  <path class="cls-8" d="M1538.07,897.02c-129.19,45.25-252.01,142.14-348.74,232.48-201.44,188.11-231.5,227.66-480.02,385.6-144.84,92.05-259.03,169.89-315.3,274.01-158.05,292.46,30.2,608.35,424.67,608.35h1603.56s188.63,4.01,326.27-152.31c466.53-529.81-307.25-1664.49-1210.45-1348.12"/>
  <rect class="cls-18" x="432.2" y="2279.43" width="1516.36" height="58.91"/>
  <rect class="cls-22" x="567.81" y="1598.26" width="66.94" height="27.66"/>
  <rect class="cls-22" x="632.88" y="1598.26" width="152.68" height="27.66"/>
  <rect class="cls-22" x="542.41" y="1562.1" width="92.34" height="38.03"/>
  <rect class="cls-22" x="632.88" y="1562.1" width="179.45" height="38.03"/>
  <rect class="cls-22" x="585.66" y="1624.04" width="49.09" height="593.44"/>
  <rect class="cls-18" x="632.88" y="1624.04" width="133.22" height="593.44"/>
  <rect class="cls-22" x="567.81" y="2215.62" width="66.94" height="27.66"/>
  <rect class="cls-22" x="632.88" y="2215.62" width="152.68" height="27.66"/>
  <rect class="cls-22" x="542.41" y="2241.4" width="92.34" height="38.03"/>
  <rect class="cls-22" x="632.88" y="2241.4" width="179.45" height="38.03"/>
  <rect class="cls-18" x="447.61" y="1481.56" width="1485.54" height="82.29"/>
  <polygon class="cls-3" points="447.61 1484.33 1933.15 1484.33 1933.15 1449.62 1190.38 1043.95 447.61 1449.62 447.61 1484.33"/>
  <path class="cls-4" d="M1190.38,1118.24c96.88,0,175.41,78.54,175.41,175.41s-78.54,175.41-175.41,175.41-175.41-78.54-175.41-175.41,78.54-175.41,175.41-175.41"/>
  <rect class="cls-22" x="916.08" y="1598.26" width="66.94" height="27.66"/>
  <rect class="cls-22" x="1264.36" y="1598.26" width="66.94" height="27.66"/>
  <rect class="cls-22" x="1612.63" y="1598.26" width="66.94" height="27.66"/>
  <rect class="cls-22" x="981.16" y="1598.26" width="152.68" height="27.66"/>
  <rect class="cls-22" x="1329.43" y="1598.26" width="152.68" height="27.66"/>
  <rect class="cls-22" x="1677.7" y="1598.26" width="152.68" height="27.66"/>
  <rect class="cls-22" x="890.69" y="1562.1" width="92.34" height="38.03"/>
  <rect class="cls-22" x="1238.96" y="1562.1" width="92.34" height="38.03"/>
  <rect class="cls-22" x="1587.23" y="1562.1" width="92.34" height="38.03"/>
  <rect class="cls-22" x="981.16" y="1562.1" width="179.45" height="38.03"/>
  <rect class="cls-22" x="1329.43" y="1562.1" width="179.45" height="38.03"/>
  <rect class="cls-22" x="1677.7" y="1562.1" width="179.45" height="38.03"/>
  <rect class="cls-22" x="933.93" y="1624.04" width="49.09" height="593.44"/>
  <rect class="cls-22" x="1282.2" y="1624.04" width="49.09" height="593.44"/>
  <rect class="cls-22" x="1630.48" y="1624.04" width="49.1" height="593.44"/>
  <rect class="cls-18" x="981.16" y="1624.04" width="133.22" height="593.44"/>
  <rect class="cls-18" x="1329.43" y="1624.04" width="133.22" height="593.44"/>
  <rect class="cls-18" x="1677.7" y="1624.04" width="133.22" height="593.44"/>
  <rect class="cls-22" x="916.08" y="2215.62" width="66.94" height="27.66"/>
  <rect class="cls-22" x="1264.36" y="2215.62" width="66.94" height="27.66"/>
  <rect class="cls-22" x="1612.63" y="2215.62" width="66.94" height="27.66"/>
  <rect class="cls-22" x="981.16" y="2215.62" width="152.68" height="27.66"/>
  <rect class="cls-22" x="1329.43" y="2215.62" width="152.68" height="27.66"/>
  <rect class="cls-22" x="1677.7" y="2215.62" width="152.68" height="27.66"/>
  <rect class="cls-22" x="890.69" y="2241.4" width="92.34" height="38.03"/>
  <rect class="cls-22" x="1238.96" y="2241.4" width="92.34" height="38.03"/>
  <rect class="cls-22" x="1587.23" y="2241.4" width="92.34" height="38.03"/>
  <rect class="cls-22" x="981.16" y="2241.4" width="179.45" height="38.03"/>
  <rect class="cls-22" x="1329.43" y="2241.4" width="179.45" height="38.03"/>
  <rect class="cls-22" x="1677.7" y="2241.4" width="179.45" height="38.03"/>
  <path class="cls-1" d="M1111.1,1211.14c-.31.04-.63.06-.96.06-.42,0-.83-.03-1.24-.09l-32.69,100.41h67.58l-32.69-100.37ZM1277.38,1211.04c-.29.03-.58.05-.88.05-.43,0-.84-.03-1.25-.09l-32.73,100.52h67.58l-32.72-100.47ZM1131.93,1392.27h17.6v-3.54c0-1.95,1.59-3.53,3.53-3.53h31.04l1.85-165.87c-5.04-2.23-8.88-6.68-10.29-12.11h-58.43c-.55.89-1.26,1.68-2.09,2.31l33.21,101.99h3.83c2.7,0,4.9,2.2,4.9,4.9s-2.2,4.9-4.9,4.9h-1.18c-4.12,18.75-20.82,32.78-40.8,32.78s-36.69-14.03-40.81-32.78h-1.17c-2.7,0-4.9-2.2-4.9-4.9s2.2-4.9,4.9-4.9h3.43l33.27-102.16c-.74-.6-1.37-1.32-1.87-2.13h-1.92c-2.39,0-4.34-1.95-4.34-4.34h0c0-2.39,1.95-4.34,4.34-4.34h1.92c1.46-2.38,4.09-3.97,7.09-3.97s5.63,1.59,7.09,3.97h58.31c1.33-5.78,5.4-10.52,10.78-12.75l.13-12.06c.05-4.63,2.97-8.41,6.59-8.41s6.54,3.78,6.6,8.41l.16,11.85c5.63,2.14,9.92,6.99,11.29,12.95h58.45c1.45-2.32,4.02-3.87,6.96-3.87s5.51,1.54,6.96,3.87h1.49c2.39,0,4.34,1.95,4.34,4.34h0c0,2.39-1.95,4.34-4.34,4.34h-1.49c-.54.86-1.23,1.62-2.04,2.23l33.24,102.06h3.83c2.7,0,4.9,2.2,4.9,4.9s-2.21,4.9-4.9,4.9h-1.18c-4.11,18.75-20.82,32.78-40.8,32.78s-36.69-14.03-40.8-32.78h-1.18c-2.7,0-4.9-2.2-4.9-4.9s2.2-4.9,4.9-4.9h3.43l33.32-102.31c-.68-.56-1.27-1.23-1.74-1.99h-58.57c-1.44,5.58-5.46,10.12-10.71,12.29l2.27,165.69h30.39c1.95,0,3.53,1.59,3.53,3.53v3.54h17.6c6.1,0,11.09,4.99,11.09,11.09v11.09h-144.31v-11.09c0-6.1,4.99-11.09,11.09-11.09Z"/>
  <rect class="cls-18" x="375.83" y="2335.35" width="1629.1" height="61.9"/>
  <polygon class="cls-22" points="1991.09 1226.54 2092.11 1524.33 2085.55 1526.55 1987.81 1238.43 1890.07 1526.55 1883.51 1524.33 1984.53 1226.54 1987.81 1227.65 1991.09 1226.54"/>
  <path class="cls-4" d="M1987.81,1209.83c9.84,0,17.81,7.97,17.81,17.81s-7.97,17.81-17.81,17.81-17.81-7.97-17.81-17.81,7.97-17.81,17.81-17.81"/>
  <path class="cls-4" d="M2238.29,1106.14h0c11.13,0,20.04,12.58,20.23,27.94l.58,45.59c7.4,10.57,12.12,26.61,12.12,44.56s-4.25,32.35-11.01,42.9l7.19,652.64h-56.56l5.84-651.43c-7.22-10.58-11.82-26.41-11.82-44.11s4.98-34.86,12.74-45.42l.46-44.73c.16-15.37,9.1-27.94,20.23-27.94"/>
  <path class="cls-20" d="M1864.15,1516.05c6.68,62.39,59.49,110.98,123.66,110.98s116.98-48.59,123.66-110.98h-247.31Z"/>
  <path class="cls-13" d="M2106.03,1500.27h-236.44c-8.03,0-14.59,6.56-14.59,14.59s6.57,14.59,14.59,14.59h236.44c8.03,0,14.59-6.57,14.59-14.59s-6.56-14.59-14.59-14.59"/>
  <path class="cls-4" d="M1988.02,1216.16h500.04c6.07,0,11.04,4.97,11.04,11.04h0c0,6.07-4.97,11.04-11.04,11.04h-500.04c-6.07,0-11.04-4.97-11.04-11.04h0c0-6.07,4.97-11.04,11.04-11.04"/>
  <polygon class="cls-22" points="2490.26 1226.54 2591.28 1524.33 2584.72 1526.55 2486.98 1238.43 2389.25 1526.55 2382.69 1524.33 2483.7 1226.54 2486.98 1227.65 2490.26 1226.54"/>
  <path class="cls-4" d="M2486.98,1209.83c9.84,0,17.81,7.97,17.81,17.81s-7.97,17.81-17.81,17.81-17.81-7.97-17.81-17.81,7.97-17.81,17.81-17.81"/>
  <path class="cls-20" d="M2363.33,1516.05c6.68,62.39,59.49,110.98,123.66,110.98s116.98-48.59,123.66-110.98h-247.31Z"/>
  <path class="cls-13" d="M2605.2,1500.27h-236.44c-8.03,0-14.59,6.56-14.59,14.59s6.56,14.59,14.59,14.59h236.44c8.02,0,14.59-6.57,14.59-14.59s-6.57-14.59-14.59-14.59"/>
  <path class="cls-7" d="M1972.99,2149.1h459.09c31.85,0,57.91,55.88,57.91,124.17h0c0,68.3-26.06,124.18-57.91,124.18h-459.09c-31.85,0-57.91-55.88-57.91-124.17h0c0-68.3,26.06-124.17,57.91-124.17"/>
  <path class="cls-20" d="M2106.35,2149.1h164.62c-31.86,0-57.92,55.88-57.92,124.17h0c0,68.3,26.06,124.17,57.92,124.17h-164.62c-31.85-.01-57.92-55.88-57.92-124.17h0c0-68.3,26.06-124.17,57.92-124.17"/>
  <path class="cls-1" d="M2410.67,2359.61h434.29c-18.01-44.46-25.04-107.62,0-172.66h-434.29c-14.54,0-26.46,38.9-26.46,86.33s11.92,86.33,26.47,86.33"/>
  <path class="cls-11" d="M2828.73,2276.61c-.32-28.26,4.33-58.75,16.23-89.67h-434.3c-14.54,0-26.46,38.9-26.46,86.32,0,1.12.01,2.23.02,3.34h444.51Z"/>
  <path class="cls-20" d="M2858.53,2397.44h-449.31c-20.93.01-43.07-56.61-43.07-124.91s22.14-123.42,43.07-123.42h449.31l-.2,37.2-447.67.64c-14.54.02-26.46,38.9-26.46,86.33s11.92,86.33,26.46,86.33l447.67-.64.2,38.47Z"/>
  <path class="cls-9" d="M2441.7,2224.84h49.71c19.07,15.38,13.56,76.34,24.89,116.27l-29.37-32.96-21.3,30.85c-16.51-36.2-7.07-97.97-23.93-114.16"/>
  <path class="cls-25" d="M2771.88,1977.88h-401.41c-27.85,0-50.64,38.53-50.64,85.61h0c0,47.09,22.79,85.62,50.64,85.62h401.41c27.85,0,50.64-38.53,50.64-85.61h0c0-47.09-22.79-85.61-50.64-85.61"/>
  <path class="cls-21" d="M2655.27,1977.88h-143.93c27.85,0,50.64,38.53,50.64,85.61h0c0,47.09-22.79,85.61-50.64,85.61h143.93c27.85,0,50.64-38.53,50.64-85.61h0c0-47.09-22.79-85.61-50.64-85.61"/>
  <path class="cls-1" d="M2389.19,2123.02h-379.72c15.74-30.65,21.89-74.2,0-119.04h379.73c12.71,0,23.14,26.82,23.14,59.52s-10.42,59.52-23.14,59.52"/>
  <path class="cls-11" d="M2023.65,2065.8c.28-19.48-3.78-40.51-14.19-61.82h379.73c12.71,0,23.14,26.82,23.14,59.52,0,.77,0,1.54-.02,2.3h-388.66Z"/>
  <path class="cls-21" d="M1997.61,2149.1h392.86c18.3,0,37.66-39.03,37.66-86.12s-19.36-85.1-37.66-85.1h-392.86l.17,25.65,391.42.44c12.71.02,23.14,26.82,23.14,59.52s-10.42,59.52-23.14,59.52l-391.42-.44-.17,26.53Z"/>
  <path class="cls-21" d="M2362.05,2030.1h-43.46c-16.68,10.6-11.86,52.63-21.76,80.16l25.68-22.72,18.62,21.27c14.44-24.96,6.18-67.55,20.92-78.71"/>
  <path class="cls-7" d="M2069.26,1863.44h356.78c24.75,0,45.01,25.75,45.01,57.22h0c0,31.47-20.25,57.23-45.01,57.23h-356.78c-24.75,0-45.01-25.75-45.01-57.23h0c0-31.48,20.25-57.22,45.01-57.22"/>
  <path class="cls-20" d="M2172.91,1863.44h127.93c-24.76,0-45.01,25.75-45.01,57.23h0c0,31.47,20.25,57.22,45.01,57.22h-127.93c-24.75,0-45.01-25.75-45.01-57.23h0c0-31.48,20.25-57.22,45.01-57.22"/>
  <path class="cls-1" d="M2409.41,1960.45h337.51c-14-20.49-19.46-49.6,0-79.57h-337.51c-11.3,0-20.57,17.93-20.57,39.79s9.27,39.79,20.57,39.79"/>
  <path class="cls-11" d="M2734.31,1922.2c-.25-13.02,3.36-27.08,12.61-41.32h-337.52c-11.3,0-20.57,17.93-20.57,39.78,0,.52,0,1.03.02,1.54h345.45Z"/>
  <path class="cls-20" d="M2757.46,1977.88h-349.19c-16.27,0-33.47-26.09-33.47-57.57s17.2-56.88,33.47-56.88h349.19l-.15,17.14-347.91.29c-11.3.01-20.56,17.93-20.56,39.79s9.26,39.79,20.56,39.79l347.91-.29.15,17.73Z"/>
  <rect class="cls-26" x="301.74" y="2397.45" width="2522.86" height="4.5"/>
  <path class="cls-14" d="M1568.77,1823.44c-106.36-60.69-280.31-83.68-378.39-66.21,0,210.03.45,412.44.46,622.27v17.94h1004.59v-17.94c.01-209.83.46-412.25.46-622.27-98.09-17.47-271.57,5.52-377.93,66.21l-122.81,556.07h-3.56l-122.81-556.07Z"/>
  <path class="cls-24" d="M1593.93,1817.03c-102.68-58.59-262.62-80.79-357.31-63.92,0,205.36.45,405.4.45,610.76,131.8-1.67,360.93-15.37,456.29,12.87l-99.43-559.72Z"/>
  <path class="cls-16" d="M1617.46,1791.29c-102.68-58.59-262.62-80.78-357.31-63.92,0,205.36.45,417.83.45,623.19,131.81-1.67,342.22-11.83,432.77,26.19l-75.9-585.46Z"/>
  <path class="cls-17" d="M1645.42,1778.42c-102.68-58.59-262.62-80.79-357.31-63.92,0,205.36.45,417.83.45,623.19,131.8-1.67,316.03-7.4,404.8,39.06l-47.94-598.33Z"/>
  <path class="cls-1" d="M1693.36,1760.66c-102.68-58.59-262.62-80.79-357.31-63.92,0,205.36.45,417.83.45,623.19,133.14-3.05,268.09,10.36,356.87,56.82v-616.08Z"/>
  <path class="cls-10" d="M1660.24,1806.09c-43.32-19.61-94.17-33.71-144.52-42-50.36-8.29-100.29-10.94-141.77-7.47v9.63c41.54-3.36,91.44-.77,141.77,7.46,50.33,8.24,101.18,22.11,144.52,41.55v-9.18"/>
  <path class="cls-10" d="M1660.24,1872.03c-43.32-19.78-94.18-33.54-144.52-41.55-50.37-8.01-100.29-10.37-141.77-6.84v9.75c41.54-3.48,91.43-1.05,141.77,6.84,50.32,7.89,101.18,21.49,144.52,41.09v-9.29"/>
  <path class="cls-10" d="M1660.24,1942.81c-43.32-19.61-94.17-33.06-144.52-40.64-50.36-7.58-100.29-9.69-141.77-5.98v9.75c41.54-3.59,91.44-1.54,141.77,5.93,50.32,7.46,101.18,20.75,144.52,40.18v-9.23"/>
  <path class="cls-10" d="M1660.24,2013.6c-43.32-19.55-94.17-32.66-144.52-39.78-50.36-7.12-100.29-8.83-141.77-5.13v9.75c41.54-3.7,91.44-1.94,141.77,5.07,50.32,7.01,101.18,19.95,144.52,39.33v-9.23"/>
  <path class="cls-10" d="M1660.24,2084.33c-43.32-19.38-94.17-32.17-144.52-38.87-50.37-6.7-100.29-8.09-141.77-4.27v9.74c41.54-3.76,91.44-2.36,141.77,4.22,50.33,6.58,101.18,19.26,144.52,38.47v-9.29"/>
  <path class="cls-10" d="M1660.24,2155.11c-43.32-19.26-94.17-31.69-144.52-37.96-50.36-6.27-100.29-7.41-141.77-3.48v9.75c41.54-3.88,91.44-2.79,141.77,3.36,50.33,6.15,101.18,18.47,144.52,37.62v-9.29"/>
  <path class="cls-10" d="M1660.24,2225.89c-43.32-19.15-94.17-31.34-144.52-37.16-50.36-5.81-100.29-6.55-141.77-2.51v9.74c41.54-3.99,91.44-3.25,141.77,2.45,50.33,5.7,101.18,17.73,144.52,36.7v-9.23"/>
  <path class="cls-10" d="M1660.24,2296.62c-43.32-19.04-94.17-30.89-144.52-36.25-50.36-5.36-100.29-5.76-141.77-1.65v9.75c41.54-4.05,91.44-3.65,141.77,1.59,50.33,5.24,101.18,16.93,144.52,35.79v-9.23"/>
  <path class="cls-24" d="M1792.78,1817.03c102.68-58.59,262.62-80.79,357.31-63.92,0,205.36-.45,405.4-.45,610.76-131.81-1.67-360.93-15.37-456.29,12.87l99.43-559.72Z"/>
  <path class="cls-16" d="M1769.26,1791.29c102.68-58.59,262.62-80.78,357.31-63.92,0,205.36-.45,417.83-.45,623.19-131.81-1.67-342.22-11.83-432.77,26.19l75.9-585.46Z"/>
  <path class="cls-17" d="M1741.3,1778.42c102.68-58.59,262.62-80.79,357.31-63.92,0,205.36-.45,417.83-.45,623.19-131.8-1.67-316.03-7.4-404.8,39.06l47.94-598.33Z"/>
  <path class="cls-23" d="M1693.36,1760.66c102.68-58.59,262.62-80.79,357.31-63.92,0,205.36-.45,417.83-.45,623.19-133.14-3.05-268.09,10.36-356.87,56.82v-616.08Z"/>
  <path class="cls-10" d="M1726.47,1806.09c43.32-19.61,94.17-33.71,144.52-42,50.36-8.29,100.29-10.94,141.77-7.47v9.63c-41.54-3.36-91.44-.77-141.77,7.46-50.33,8.24-101.18,22.11-144.52,41.55v-9.18"/>
  <path class="cls-10" d="M1726.47,1872.03c43.32-19.78,94.18-33.54,144.52-41.55,50.37-8.01,100.29-10.37,141.77-6.84v9.75c-41.54-3.48-91.43-1.05-141.77,6.84-50.32,7.89-101.18,21.49-144.52,41.09v-9.29"/>
  <path class="cls-10" d="M1726.47,1942.81c43.32-19.61,94.17-33.06,144.52-40.64,50.36-7.58,100.29-9.69,141.77-5.98v9.75c-41.54-3.59-91.44-1.54-141.77,5.93-50.32,7.46-101.18,20.75-144.52,40.18v-9.23"/>
  <path class="cls-10" d="M1726.47,2013.6c43.32-19.55,94.17-32.66,144.52-39.78,50.36-7.12,100.29-8.83,141.77-5.13v9.75c-41.54-3.7-91.44-1.94-141.77,5.07-50.32,7.01-101.18,19.95-144.52,39.33v-9.23"/>
  <path class="cls-10" d="M1726.47,2084.33c43.32-19.38,94.17-32.17,144.52-38.87,50.37-6.7,100.29-8.09,141.77-4.27v9.74c-41.54-3.76-91.44-2.36-141.77,4.22-50.33,6.58-101.18,19.26-144.52,38.47v-9.29"/>
  <path class="cls-10" d="M1726.47,2155.11c43.32-19.26,94.17-31.69,144.52-37.96,50.36-6.27,100.29-7.41,141.77-3.48v9.75c-41.54-3.88-91.44-2.79-141.77,3.36-50.33,6.15-101.18,18.47-144.52,37.62v-9.29"/>
  <path class="cls-10" d="M1726.47,2225.89c43.32-19.15,94.17-31.34,144.52-37.16,50.36-5.81,100.29-6.55,141.77-2.51v9.74c-41.54-3.99-91.44-3.25-141.77,2.45-50.33,5.7-101.18,17.73-144.52,36.7v-9.23"/>
  <path class="cls-10" d="M1726.47,2296.62c43.32-19.04,94.17-30.89,144.52-36.25,50.36-5.36,100.29-5.76,141.77-1.65v9.75c-41.54-4.05-91.44-3.65-141.77,1.59-50.33,5.24-101.18,16.93-144.52,35.79v-9.23"/>
  <path class="cls-19" d="M1708.59,1989.56c-.65-1.57-.69-2.9-.1-4.01.59-1.11,1.6-1.66,3.03-1.66h31.91c1.3,0,2.55.42,3.72,1.27,1.17.85,1.96,1.86,2.35,3.04l22.32,65.19c.39,1.3,1.08,1.96,2.06,1.96s1.66-.65,2.06-1.96l21.53-65c.39-1.3,1.17-2.38,2.35-3.23,1.17-.85,2.48-1.27,3.92-1.27h26.04c1.44,0,2.74.42,3.92,1.27,1.17.85,1.96,1.93,2.35,3.23l21.53,65.39c.39,1.31,1.08,1.96,2.06,1.96s1.73-.65,2.25-1.96l22.51-65.58c.52-1.17,1.37-2.19,2.55-3.04,1.17-.85,2.48-1.27,3.92-1.27h31.71c1.44,0,2.42.55,2.94,1.66.52,1.11.59,2.25.2,3.43l-47.38,133.71c-.52,1.31-1.37,2.38-2.55,3.23-1.17.85-2.48,1.27-3.91,1.27h-25.25c-1.44,0-2.74-.42-3.92-1.27-1.17-.85-1.96-1.92-2.35-3.23l-21.53-65.19c-.39-1.3-1.08-1.96-2.06-1.96s-1.66.65-2.06,1.96l-21.53,65.19c-.39,1.31-1.17,2.38-2.35,3.23-1.17.85-2.48,1.27-3.91,1.27h-25.25c-1.44,0-2.74-.49-3.91-1.47-1.17-.98-1.89-1.99-2.15-3.03l-46.98-133.12ZM1639.09,2073.55h17.42c1.31,0,2.25-.42,2.84-1.27.59-.85.55-1.86-.1-3.03-1.3-3.26-2.87-7.08-4.7-11.45-1.83-4.37-3.52-8.45-5.09-12.24-.52-1.17-1.11-1.76-1.76-1.76s-1.24.59-1.76,1.76l-9.79,23.69c-.52,1.17-.52,2.19,0,3.03.52.85,1.5,1.27,2.94,1.27ZM1627.54,1988.39c.52-1.17,1.4-2.19,2.64-3.03,1.24-.85,2.58-1.27,4.01-1.27h27.41c1.3,0,2.58.42,3.82,1.27,1.24.85,2.12,1.86,2.64,3.03l57.17,133.12c.52,1.17.42,2.42-.29,3.72-.72,1.31-2.12,1.96-4.21,1.96h-33.48c-1.44,0-2.77-.42-4.01-1.27-1.24-.85-2.19-1.86-2.84-3.04l-5.29-11.75c-.65-1.17-1.6-2.19-2.84-3.03-1.24-.85-2.51-1.27-3.82-1.27h-41.31c-1.44,0-2.77.42-4.01,1.27-1.24.85-2.12,1.86-2.64,3.03l-5.48,11.75c-.52,1.17-1.4,2.19-2.64,3.04-1.24.85-2.51,1.27-3.82,1.27h-33.67c-.65,0-1.34-.13-2.06-.39-.72-.26-1.3-.65-1.76-1.17-.46-.52-.75-1.17-.88-1.96-.13-.78.07-1.7.59-2.74l56.77-132.53ZM1567.25,2095.87v26.62c0,1.3-.46,2.41-1.37,3.33-.91.91-2.02,1.37-3.33,1.37h-97.69c-1.44,0-2.58-.46-3.43-1.37-.85-.91-1.27-2.02-1.27-3.33v-133.91c0-1.3.42-2.41,1.27-3.33.85-.91,1.99-1.37,3.43-1.37h29.37c1.3,0,2.41.46,3.33,1.37.91.91,1.37,2.02,1.37,3.33v97.88c0,1.31.42,2.41,1.27,3.33.85.91,1.99,1.37,3.43,1.37h58.93c1.3,0,2.41.46,3.33,1.37.91.91,1.37,2.02,1.37,3.33Z"/>
  <polygon class="cls-4" points="1720.71 1743.77 1766.6 1727.84 1766.6 1915.51 1741.35 1872.03 1720.71 1924.9 1720.71 1743.77"/>
  <path class="cls-6" d="M995.23,2241.77h0c7.62-18.51,29.01-27.42,47.52-19.8l256.01,105.44c18.51,7.62,27.42,29.01,19.8,47.52-7.62,18.51-29.01,27.42-47.52,19.8l-256.01-105.44c-18.51-7.62-27.42-29.01-19.8-47.52"/>
  <path class="cls-12" d="M730.81,2362.27h-37.24c-39.19,0-70.97-64-70.97-142.94s31.77-142.94,70.97-142.94h37.24c39.19,0,70.97,64,70.97,142.94s-31.77,142.94-70.97,142.94"/>
  <path class="cls-15" d="M759.15,2324.96c-23.01,0-41.67-47.33-41.67-105.72s18.66-105.72,41.67-105.72h188.12v211.44h-188.12Z"/>
  <path class="cls-20" d="M759.15,2324.96c-18.16,0-33.61-29.48-39.31-70.61h227.43v70.61h-188.12Z"/>
  <path class="cls-20" d="M759.15,2324.96c-12.35,0-23.44-13.64-31.07-35.31h219.19v35.31h-188.12Z"/>
  <path class="cls-12" d="M1027.81,2362.27h-37.24c-39.19,0-70.97-64-70.97-142.94s31.77-142.94,70.97-142.94h37.24c39.19,0,70.97,64,70.97,142.94s-31.77,142.94-70.97,142.94"/>
  <path class="cls-5" d="M1057.11,2113.52c23.01,0,41.67,47.33,41.67,105.72s-18.66,105.72-41.67,105.72-41.67-47.33-41.67-105.72,18.66-105.72,41.67-105.72"/>
  <path class="cls-2" d="M566.55,2397.44h573.87c0-13.82,6.5-35.73-42.58-35.73h-488.71c-49.08,0-42.58,21.9-42.58,35.73"/>
  <path class="cls-12" d="M566.55,2397.44h502.27c0-13.82,6.5-35.73-42.58-35.73h-417.1c-23.42,0-42.58,8.04-42.58,17.86v17.86Z"/>
</svg>